<?xml version="1.0" standalone="no"?>
<!DOCTYPE svg PUBLIC "-//W3C//DTD SVG 20010904//EN"
 "http://www.w3.org/TR/2001/REC-SVG-20010904/DTD/svg10.dtd">
<svg version="1.0" xmlns="http://www.w3.org/2000/svg"
 width="1024.000000pt" height="1024.000000pt" viewBox="0 0 1024.000000 1024.000000"
 preserveAspectRatio="xMidYMid meet">

<g transform="translate(0.000000,1024.000000) scale(0.100000,-0.100000)"
fill="#000000" stroke="none">
<path d="M4915 9119 c-33 -4 -90 -10 -127 -14 l-68 -7 5 -176 c3 -97 8 -215
11 -260 6 -79 7 -83 27 -79 12 3 76 9 142 13 66 3 126 11 133 16 6 6 12 23 12
39 0 33 -2 33 -142 21 l-76 -7 -7 78 c-4 43 -6 80 -4 81 2 2 42 6 89 10 47 3
86 5 88 6 1 0 2 16 2 36 l0 35 -72 -6 c-40 -3 -83 -8 -95 -11 -20 -4 -22 0
-25 64 -2 37 -2 69 -1 71 2 2 48 8 104 12 56 4 103 10 106 13 11 10 -9 64 -25
68 -9 2 -44 1 -77 -3z"/>
<path d="M5368 9063 c-11 -27 -41 -91 -65 -143 -25 -52 -65 -141 -88 -198
l-44 -103 24 -11 c37 -17 52 -4 85 68 l30 67 46 -7 c26 -3 68 -6 94 -6 l48 0
17 -69 c15 -64 19 -69 47 -75 45 -9 48 -8 48 15 0 47 -127 491 -143 501 -7 4
-27 8 -45 8 -30 0 -35 -5 -54 -47z m105 -233 l6 -26 -67 4 c-37 2 -68 5 -70 7
-1 1 17 48 40 104 l42 102 22 -83 c12 -46 24 -94 27 -108z"/>
<path d="M4460 9081 c-30 -8 -30 -11 -8 -126 9 -49 15 -91 13 -94 -2 -2 -46
-12 -97 -22 -51 -11 -100 -22 -109 -24 -15 -5 -27 35 -54 173 -7 34 -22 40
-56 21 -15 -8 -19 -17 -15 -37 3 -15 8 -45 11 -67 10 -77 66 -377 73 -394 6
-15 13 -16 40 -9 l33 9 -6 57 c-3 31 -11 81 -17 110 -6 28 -9 54 -7 57 9 8
213 45 218 39 3 -3 15 -51 26 -107 17 -86 23 -102 40 -105 11 -1 29 3 39 11
19 14 18 19 -17 193 -49 242 -68 324 -76 323 -3 -1 -17 -4 -31 -8z"/>
<path d="M5850 9066 c-10 -13 -40 -132 -60 -241 -40 -218 -47 -260 -46 -262 2
-2 25 -7 52 -13 27 -5 88 -18 135 -28 l85 -18 12 25 c23 48 28 45 -145 82 -61
12 -61 -18 -2 250 22 97 39 181 39 187 0 18 -57 32 -70 18z"/>
<path d="M6196 8968 c-3 -13 -6 -26 -6 -30 0 -4 26 -15 58 -24 31 -10 61 -21
66 -25 4 -4 -1 -36 -13 -71 -25 -76 -101 -371 -97 -376 2 -1 19 -5 38 -9 l35
-5 22 73 c57 194 105 345 112 353 4 5 36 1 73 -9 37 -10 68 -16 70 -14 2 2 6
16 10 31 8 35 4 37 -171 87 -164 48 -188 50 -197 19z"/>
<path d="M3578 8829 c-25 -14 -23 -30 17 -121 20 -44 34 -82 33 -83 -6 -6
-192 -85 -200 -85 -5 0 -13 12 -19 28 -21 57 -72 162 -79 162 -14 0 -39 -26
-41 -45 -2 -11 1 -31 5 -45 8 -23 136 -326 167 -392 14 -33 39 -36 64 -9 17
19 16 24 -24 122 -23 56 -40 103 -38 105 2 2 47 22 101 44 86 35 98 37 103 22
22 -59 83 -182 92 -182 21 0 62 24 57 34 -2 6 -31 76 -64 156 -122 296 -124
300 -141 300 -9 0 -24 -5 -33 -11z"/>
<path d="M6617 8586 c-64 -129 -117 -237 -117 -239 0 -3 11 -8 24 -11 13 -3
31 -9 40 -12 12 -5 27 18 65 100 l49 105 104 -41 c56 -23 104 -42 106 -44 2
-1 -20 -52 -47 -114 -28 -61 -51 -113 -51 -115 0 -3 59 -25 66 -25 13 0 224
448 224 474 0 12 -40 36 -60 36 -5 0 -28 -40 -51 -90 -23 -49 -47 -90 -53 -90
-18 0 -196 73 -196 80 0 4 18 46 40 93 45 96 47 103 23 110 -10 2 -25 8 -33
11 -12 5 -42 -47 -133 -228z"/>
<path d="M2889 8471 c-27 -21 -32 10 52 -338 33 -138 56 -213 64 -213 7 0 23
8 35 18 21 17 22 21 10 77 -7 33 -14 65 -17 71 -4 10 110 98 144 111 7 3 34
-12 60 -33 26 -21 54 -42 60 -47 8 -6 23 1 44 22 l31 31 -134 97 c-150 108
-316 223 -322 223 -2 0 -14 -8 -27 -19z m221 -212 c0 -5 -23 -24 -52 -43 l-51
-35 -22 82 c-12 45 -25 93 -29 106 -7 19 7 12 73 -39 45 -35 81 -67 81 -71z"/>
<path d="M7435 8267 c-102 -48 -164 -148 -165 -260 0 -76 19 -125 70 -177 37
-38 124 -80 167 -80 35 0 37 2 47 43 6 26 5 27 -32 27 -74 0 -160 84 -169 164
-13 113 96 236 210 236 53 0 135 -58 158 -112 10 -24 17 -29 43 -26 27 3 31 7
29 31 -2 37 -57 110 -107 144 -35 23 -53 28 -121 31 -68 2 -88 -1 -130 -21z"/>
<path d="M4800 8236 c-583 -63 -1207 -377 -1650 -832 -322 -331 -562 -749
-665 -1162 -73 -287 -101 -644 -76 -972 14 -186 15 -196 47 -330 78 -336 244
-692 468 -1005 69 -96 98 -128 265 -295 399 -399 913 -665 1454 -754 429 -71
783 -59 1186 39 345 84 750 288 1062 536 189 150 461 468 595 696 101 171 217
440 273 636 81 279 96 393 96 747 0 278 -2 305 -28 464 -16 93 -42 221 -58
285 -73 285 -253 644 -453 901 -81 105 -242 284 -293 327 -26 22 -77 65 -113
95 -371 311 -837 521 -1315 593 -22 3 -83 13 -135 21 -135 21 -505 26 -660 10z
m460 -66 c481 -36 973 -191 1318 -416 328 -214 587 -467 793 -773 80 -118 210
-377 265 -526 62 -168 113 -394 129 -570 3 -33 10 -109 17 -169 15 -149 5
-420 -22 -575 -74 -426 -273 -883 -527 -1211 -160 -206 -366 -393 -613 -556
-326 -215 -606 -332 -990 -411 l-175 -37 -305 0 c-252 0 -322 3 -405 18 -55
10 -109 20 -120 22 -328 59 -708 218 -1000 417 -411 281 -693 611 -916 1072
-109 224 -173 444 -216 740 -27 184 -24 506 6 700 37 247 59 337 132 560 47
143 215 445 342 615 318 425 764 758 1267 948 240 91 517 145 790 155 41 2 82
4 90 5 8 1 71 -3 140 -8z"/>
<path d="M4960 7910 c-289 -27 -558 -102 -863 -240 -252 -114 -407 -222 -615
-428 -242 -239 -405 -459 -537 -727 -82 -167 -121 -275 -160 -450 -37 -165
-40 -204 -40 -515 0 -296 4 -328 72 -610 65 -273 209 -600 346 -787 107 -144
313 -319 480 -406 103 -53 268 -102 417 -121 200 -26 346 -51 419 -72 94 -26
239 -95 267 -125 23 -26 35 -24 25 4 -4 12 -11 61 -15 109 -8 98 -46 222 -97
319 -90 169 -298 315 -532 373 -76 19 -120 27 -322 57 -202 29 -364 88 -508
183 -121 81 -312 316 -385 476 -54 117 -55 115 35 70 43 -21 130 -53 193 -70
313 -88 338 -98 436 -176 32 -26 84 -76 114 -111 59 -68 78 -102 39 -67 -62
56 -298 154 -465 194 -49 11 -104 30 -124 41 -33 18 -33 17 11 -23 32 -31 79
-57 160 -91 136 -57 397 -211 482 -284 33 -29 63 -53 67 -53 12 0 -9 114 -34
189 -34 102 -80 174 -156 243 -110 101 -222 152 -445 203 -204 46 -252 63
-297 103 -49 44 -69 89 -99 219 -32 137 -32 374 0 553 29 163 82 367 125 477
62 162 188 359 375 587 114 140 414 434 514 504 48 34 90 62 93 62 2 0 -19
-30 -49 -67 -133 -168 -202 -303 -232 -460 -19 -97 -18 -369 2 -533 9 -71 13
-170 10 -260 -4 -130 -7 -154 -34 -227 -42 -116 -116 -234 -201 -320 -41 -41
-76 -73 -78 -71 -2 2 16 55 41 116 48 122 113 332 140 452 10 44 18 134 21
220 3 118 1 136 -7 95 -27 -135 -208 -727 -226 -745 -3 -3 -3 11 0 30 4 19 11
118 17 220 18 295 56 602 85 673 l24 59 -31 -28 c-36 -35 -71 -94 -91 -154
-42 -127 -75 -449 -78 -755 0 -88 -4 -203 -8 -255 -4 -52 -6 -97 -5 -99 2 -1
37 21 80 50 199 138 361 369 414 591 25 106 25 218 0 463 -23 225 -24 295 -5
436 16 122 53 226 120 341 51 88 68 105 49 49 -21 -60 -37 -208 -30 -272 7
-61 41 -171 71 -230 10 -19 49 -83 88 -142 54 -83 73 -104 79 -93 18 32 40
174 40 261 1 101 -17 163 -74 247 -36 53 -57 65 -34 19 33 -63 55 -246 39
-329 l-8 -43 -38 74 c-76 148 -95 297 -57 454 26 108 50 158 109 224 111 124
417 252 771 323 262 52 629 61 830 21 18 -4 21 -3 10 4 -56 33 -550 68 -730
51z m-1850 -3343 c203 -213 444 -326 845 -397 66 -12 145 -28 176 -36 120 -30
248 -101 338 -187 54 -53 161 -180 161 -193 0 -3 -24 14 -52 38 -60 52 -195
126 -283 157 -33 12 -157 43 -276 70 -253 58 -353 96 -423 160 l-49 46 22 -43
c68 -134 197 -194 591 -276 167 -35 283 -91 360 -173 65 -68 160 -179 160
-185 0 -3 -23 6 -51 20 -104 49 -216 81 -344 96 -254 30 -371 51 -465 82 -151
51 -310 157 -457 306 -151 153 -196 222 -313 481 -44 98 -80 181 -80 185 0 4
17 -13 37 -38 21 -25 67 -76 103 -113z"/>
<path d="M5345 7705 c-114 -24 -208 -55 -322 -106 -253 -113 -375 -323 -413
-709 -37 -376 -129 -558 -419 -829 -117 -109 -141 -140 -134 -181 6 -42 25
-60 103 -98 102 -50 116 -77 89 -170 -50 -176 -50 -209 7 -268 l35 -37 -25
-26 c-55 -60 -59 -99 -16 -183 39 -77 38 -119 -5 -243 -40 -114 -43 -151 -16
-203 49 -96 127 -129 431 -181 330 -57 456 -108 586 -236 64 -63 90 -98 122
-165 55 -110 65 -173 59 -340 -5 -126 -18 -196 -47 -249 -7 -14 -7 -21 0 -21
19 0 59 76 76 145 22 88 22 290 1 391 -30 142 -129 292 -249 377 -133 94 -237
129 -528 177 -297 50 -378 81 -399 156 -8 27 -3 46 31 119 55 119 62 198 24
280 -31 69 -32 90 -6 132 18 30 66 53 112 53 34 0 26 17 -14 31 -47 15 -117
82 -143 134 -17 37 -17 37 16 109 47 99 46 152 -1 201 -19 20 -62 51 -95 68
-35 19 -61 40 -63 51 -3 13 33 54 120 140 143 140 225 245 290 371 76 149 87
191 124 460 39 291 111 450 261 584 152 136 483 230 763 218 206 -9 389 -57
595 -157 236 -115 416 -262 618 -505 124 -149 187 -244 269 -410 120 -240 168
-384 203 -610 22 -147 32 -533 16 -646 -7 -46 -15 -100 -17 -119 -9 -59 -71
-290 -104 -385 -72 -204 -219 -490 -339 -660 -72 -103 -331 -363 -443 -446
-384 -284 -782 -448 -1248 -513 -201 -28 -329 -30 -535 -6 -338 37 -557 86
-688 152 -22 11 -41 17 -44 15 -6 -6 102 -58 177 -86 107 -38 197 -60 425
-102 223 -41 237 -42 440 -42 186 -1 227 3 360 27 175 31 213 42 395 103 223
76 345 136 569 280 260 168 518 426 703 703 80 121 222 404 267 533 45 129
118 433 137 572 13 96 15 163 10 335 -3 118 -10 235 -15 260 -5 25 -12 68 -16
97 -47 376 -286 815 -635 1163 -254 254 -550 417 -890 490 -70 16 -143 22
-275 25 -160 3 -192 1 -290 -20z"/>
<path d="M6224 7255 c14 -55 28 -204 23 -246 -9 -76 -44 -143 -103 -199 -43
-41 -50 -52 -36 -56 67 -22 146 -70 182 -112 52 -58 73 -99 109 -209 l28 -86
12 78 c24 161 85 284 188 381 l54 51 -58 22 c-119 45 -203 119 -303 265 -64
93 -103 138 -96 111z m164 -317 c18 -20 55 -51 83 -68 27 -18 49 -34 49 -36 0
-2 -16 -27 -36 -55 -20 -27 -47 -75 -59 -105 l-22 -55 -26 44 c-24 40 -108
117 -129 117 -5 0 5 20 22 44 34 46 49 96 50 161 l1 40 17 -25 c9 -14 32 -41
50 -62z"/>
<path d="M4995 6841 c-71 -17 -69 -29 2 -24 108 8 207 -21 291 -85 18 -14 71
-82 117 -153 91 -136 149 -196 248 -256 200 -119 279 -218 280 -348 1 -52 -5
-74 -41 -145 -22 -47 -73 -125 -112 -174 -125 -157 -192 -297 -230 -486 -19
-89 -21 -127 -17 -245 8 -203 44 -312 184 -555 138 -239 154 -288 153 -465 0
-175 -29 -285 -102 -388 -35 -49 -13 -39 41 18 99 104 137 226 128 406 -7 136
-34 218 -134 409 -129 244 -140 269 -167 353 -59 191 -58 321 4 512 53 161
102 257 200 395 135 189 166 267 158 399 -5 94 -37 167 -95 222 -21 20 -97 73
-170 118 -72 45 -147 99 -166 120 -20 22 -69 91 -110 153 -83 126 -139 176
-231 208 -57 21 -170 25 -231 11z"/>
<path d="M6881 6605 c-2 -36 -83 -279 -112 -337 -16 -31 -54 -81 -84 -110
l-55 -53 66 -75 c75 -85 87 -105 121 -204 19 -56 61 -233 63 -265 2 -26 33 80
54 185 16 78 35 143 50 169 24 40 85 103 134 137 l24 16 -77 93 c-43 51 -91
120 -106 153 -28 59 -36 89 -63 236 -7 41 -14 66 -15 55z m36 -383 c14 -29 43
-70 65 -92 l39 -41 -30 -25 c-32 -27 -100 -153 -102 -188 0 -11 -10 5 -21 37
-14 42 -37 77 -79 121 l-58 63 46 38 c47 39 92 119 94 165 l0 25 10 -25 c6
-14 22 -49 36 -78z"/>
<path d="M4860 6314 c0 -11 23 -50 44 -72 11 -13 50 -40 86 -60 60 -34 71 -37
145 -37 67 0 98 7 186 38 58 20 117 37 130 38 l24 1 -25 8 c-40 13 -109 11
-193 -5 -157 -30 -254 -15 -344 55 -29 22 -53 37 -53 34z"/>
<path d="M6176 5425 c-222 -357 -263 -499 -212 -740 15 -69 41 -148 69 -212
158 -350 149 -636 -26 -868 -45 -60 -110 -120 -155 -144 -13 -7 -22 -15 -19
-17 3 -3 42 13 87 36 101 51 167 115 214 207 71 142 88 284 62 513 -23 197
-19 220 62 339 81 120 139 238 153 316 15 78 5 224 -19 300 -11 33 -43 114
-72 180 -29 66 -55 142 -59 168 l-6 48 -79 -126z m160 -330 c16 -59 15 -187 0
-258 -20 -87 -120 -292 -177 -360 l-27 -32 26 75 c25 71 26 87 29 290 4 383 4
385 34 529 l11 54 44 -119 c25 -65 52 -146 60 -179z m-193 129 c-14 -33 -18
-87 -24 -329 -4 -203 -11 -303 -20 -334 l-14 -43 -25 118 c-20 95 -25 148 -25
259 0 153 9 183 87 322 35 61 47 65 21 7z"/>
<path d="M2485 8143 c-60 -31 -135 -120 -135 -160 0 -9 37 -55 83 -102 45 -47
116 -123 158 -168 l75 -82 28 22 28 23 -52 62 c-28 34 -49 66 -45 72 8 13 74
13 169 0 66 -10 77 -9 95 7 12 9 21 27 21 39 0 20 -8 22 -109 34 l-109 13 15
36 c27 64 -4 167 -61 202 -38 23 -119 25 -161 2z m124 -80 c48 -45 45 -98 -8
-156 l-40 -42 -65 64 -66 65 23 30 c25 32 81 66 109 66 10 0 31 -12 47 -27z"/>
<path d="M7940 7948 c-19 -17 -49 -43 -65 -57 -149 -129 -254 -223 -273 -244
l-24 -25 98 -101 c101 -105 114 -112 153 -75 12 11 3 25 -62 91 l-76 79 137
126 c75 70 152 143 171 162 34 35 34 36 16 56 -24 27 -34 25 -75 -12z"/>
<path d="M2118 7709 c-20 -6 -55 -27 -78 -47 -76 -64 -97 -151 -64 -261 22
-75 120 -173 195 -195 138 -41 246 1 313 124 72 133 19 278 -129 351 -72 35
-170 47 -237 28z m187 -90 c54 -25 121 -98 130 -140 16 -71 -32 -156 -102
-185 -130 -55 -294 60 -289 202 3 92 60 144 159 144 38 0 73 -7 102 -21z"/>
<path d="M8179 7608 c-186 -160 -329 -292 -329 -304 0 -7 10 -24 23 -38 l22
-26 122 114 c66 62 162 148 212 191 l91 77 -17 29 c-10 16 -22 29 -28 29 -6 0
-50 -33 -96 -72z"/>
<path d="M8375 7343 c-213 -94 -385 -183 -385 -201 0 -4 9 -22 20 -40 l20 -32
42 27 c53 33 281 144 286 139 4 -4 -99 -189 -175 -313 -42 -71 -43 -73 -27
-98 9 -14 19 -25 23 -25 13 0 486 242 489 250 2 5 -4 22 -13 39 -18 37 -9 39
-203 -58 -78 -39 -144 -71 -146 -71 -2 0 32 62 75 137 86 149 114 220 105 258
-8 31 -13 31 -111 -12z"/>
<path d="M1770 7179 c-37 -15 -60 -39 -86 -90 -35 -71 -63 -149 -53 -149 5 0
116 -52 246 -115 130 -63 238 -115 240 -115 9 0 82 167 88 201 15 83 -44 180
-120 195 -22 4 -56 3 -75 -3 -34 -9 -38 -7 -53 19 -33 58 -119 84 -187 57z
m100 -79 c28 -15 32 -55 13 -118 -9 -31 -18 -58 -19 -60 -1 -2 -34 13 -73 33
l-71 35 19 38 c35 68 86 96 131 72z m239 -106 c27 -34 27 -83 1 -134 -11 -22
-22 -40 -24 -40 -5 0 -159 71 -164 74 -6 6 48 114 60 119 7 3 34 6 60 6 39 1
50 -3 67 -25z"/>
<path d="M8590 6789 c-193 -65 -330 -120 -330 -131 0 -5 7 -22 15 -38 l15 -30
63 25 c34 13 146 52 249 85 l188 61 -15 36 c-8 19 -15 37 -15 39 0 9 -32 0
-170 -47z"/>
<path d="M8574 6559 c-53 -15 -127 -72 -156 -119 -16 -25 -33 -70 -40 -100
-15 -74 7 -150 59 -209 l38 -43 24 26 24 26 -21 23 c-27 29 -52 89 -52 126 0
67 52 138 125 172 52 24 138 24 190 0 73 -33 97 -79 97 -182 -1 -62 1 -67 25
-78 46 -21 56 0 51 99 -6 96 -26 146 -79 198 -62 61 -192 88 -285 61z"/>
<path d="M1504 6421 c-38 -23 -60 -68 -73 -151 -17 -109 -18 -132 -7 -136 17
-6 395 -74 447 -80 46 -6 46 -6 52 28 6 43 4 46 -41 53 -61 11 -186 36 -189
38 -8 9 73 57 127 76 141 51 180 81 180 141 0 23 -14 19 -147 -34 -50 -20 -95
-36 -101 -36 -5 0 -19 17 -29 38 -29 54 -75 82 -137 82 -32 0 -62 -7 -82 -19z
m136 -81 c31 -31 42 -69 35 -123 -6 -38 -10 -47 -23 -43 -10 3 -48 10 -86 17
l-68 11 6 55 c9 77 29 103 77 103 26 0 46 -7 59 -20z"/>
<path d="M1526 5925 c-57 -22 -102 -60 -133 -112 -24 -42 -27 -58 -31 -165
l-4 -118 263 2 264 3 0 127 c0 124 -1 127 -30 170 -43 61 -123 100 -218 104
-47 3 -85 -1 -111 -11z m192 -89 c65 -34 102 -96 102 -172 l0 -44 -196 0 -197
0 7 58 c8 68 44 126 96 153 42 23 148 26 188 5z"/>
<path d="M1449 2436 c-22 -23 -9 -36 36 -36 l45 0 0 -150 0 -150 25 0 25 0 0
150 0 150 46 0 c40 0 45 2 42 21 -3 19 -10 21 -106 22 -57 1 -107 -2 -113 -7z"/>
<path d="M1808 2443 c-2 -5 -2 -84 0 -176 3 -167 3 -168 25 -165 20 3 22 8 19
58 -5 97 -2 100 78 100 l70 0 0 -81 c0 -78 1 -80 23 -77 22 3 22 5 25 171 l2
167 -25 0 c-24 0 -25 -2 -25 -70 l0 -71 -72 3 -73 3 0 73 c0 67 -1 72 -22 72
-12 0 -23 -3 -25 -7z"/>
<path d="M2283 2442 l-83 -3 0 -169 0 -170 95 0 c95 0 95 0 95 25 0 24 -2 25
-70 25 l-70 0 0 55 0 55 60 0 c53 0 60 2 60 20 0 18 -7 20 -60 20 l-60 0 0 50
0 50 71 0 c67 0 70 1 67 22 -4 25 0 25 -105 20z"/>
<path d="M2730 2274 l0 -174 58 0 c118 0 187 66 187 180 0 63 -30 122 -73 144
-15 7 -60 16 -99 19 l-73 6 0 -175z m139 112 c15 -8 32 -26 39 -41 17 -36 15
-110 -3 -145 -19 -36 -43 -50 -89 -50 l-36 0 0 125 0 125 30 0 c17 0 43 -6 59
-14z"/>
<path d="M3203 2442 l-83 -3 0 -169 0 -170 95 0 c95 0 95 0 95 25 0 24 -2 25
-70 25 l-70 0 0 55 0 55 58 0 c51 0 58 2 58 20 0 18 -7 20 -58 20 l-58 0 0 50
0 50 65 0 c58 0 65 2 65 19 0 26 -2 26 -97 23z"/>
<path d="M3455 2442 c-6 -4 -10 -75 -10 -175 l0 -168 25 3 c24 3 25 7 28 71 4
88 19 88 77 -2 39 -61 49 -70 74 -69 l29 1 -46 74 -45 74 21 15 c61 42 66 130
9 164 -33 20 -140 28 -162 12z m129 -53 c15 -12 26 -30 26 -44 0 -30 -44 -65
-81 -65 -29 0 -29 0 -29 65 0 65 0 65 29 65 15 0 40 -9 55 -21z"/>
<path d="M3847 2443 c-3 -4 -8 -42 -11 -83 -4 -41 -11 -97 -16 -125 -23 -131
-22 -135 4 -135 26 0 27 5 42 168 4 39 9 72 13 72 3 0 16 -28 28 -63 38 -110
62 -157 77 -157 18 0 52 63 87 160 l24 65 7 -55 c4 -30 11 -84 15 -120 7 -57
11 -65 31 -68 26 -4 26 -11 6 148 -9 69 -17 136 -19 150 -1 14 -3 28 -4 33 0
4 -12 7 -25 7 -21 0 -28 -13 -67 -115 -24 -63 -46 -115 -49 -115 -6 0 -17 25
-62 145 -16 44 -30 81 -31 81 -11 8 -46 13 -50 7z"/>
<path d="M4590 2433 c-71 -37 -102 -128 -75 -221 10 -32 27 -60 45 -76 35 -29
107 -43 159 -30 29 7 37 14 39 37 3 26 -11 37 -22 18 -11 -16 -67 -21 -99 -7
-50 21 -70 50 -75 110 -5 59 14 108 50 127 11 6 44 9 74 7 46 -4 55 -2 60 14
3 11 4 21 2 23 -1 1 -30 6 -63 9 -47 5 -67 3 -95 -11z"/>
<path d="M4905 2438 c-2 -7 -6 -86 -8 -175 l-4 -163 89 0 c87 0 88 0 88 25 0
24 -2 25 -66 25 l-65 0 3 150 c3 138 2 150 -15 150 -10 0 -19 -6 -22 -12z"/>
<path d="M5410 2313 c0 -76 -3 -155 -6 -175 -6 -36 -5 -38 20 -38 l26 0 1 118
c1 64 1 123 0 130 -5 33 21 0 89 -118 61 -105 79 -130 98 -130 22 0 22 0 22
170 0 163 -1 170 -20 170 -19 0 -20 -7 -22 -102 0 -57 -1 -109 -1 -115 1 -32
-20 -4 -82 107 -61 111 -69 120 -96 120 l-29 0 0 -137z"/>
<path d="M6113 2440 c-64 -20 -111 -113 -99 -195 14 -86 81 -145 165 -145 59
0 91 18 91 50 l0 27 -40 -19 c-33 -17 -45 -18 -73 -9 -58 19 -81 53 -85 126
-4 61 -3 66 27 96 31 30 35 31 91 26 53 -4 60 -3 66 15 3 11 4 21 2 23 -10 10
-116 13 -145 5z"/>
<path d="M6950 2275 l0 -175 25 0 c25 0 25 1 25 80 l0 80 70 0 70 0 0 -81 c0
-78 1 -80 23 -77 22 3 22 5 25 171 l2 167 -25 0 c-24 0 -25 -2 -25 -70 l0 -70
-70 0 -70 0 0 75 c0 73 -1 75 -25 75 l-25 0 0 -175z"/>
<path d="M7459 2442 c-25 -3 -31 -14 -83 -163 -31 -89 -56 -165 -56 -170 0 -5
11 -9 24 -9 21 0 28 8 42 55 l18 56 60 -3 59 -3 17 -50 c14 -42 21 -51 43 -53
15 -2 27 0 27 5 0 11 -109 313 -118 327 -4 6 -19 10 -33 8z m51 -189 c0 -2
-20 -3 -45 -3 -25 0 -45 1 -45 3 0 8 33 113 38 121 4 6 51 -103 52 -121z"/>
<path d="M7783 2442 c-95 -2 -103 -4 -103 -22 0 -17 7 -20 40 -20 l40 0 0 -97
c0 -148 9 -203 31 -203 18 0 19 10 19 150 l0 150 45 0 c38 0 45 3 45 19 0 11
-3 21 -7 23 -5 2 -54 2 -110 0z"/>
<path d="M8180 2440 c0 -3 25 -50 55 -104 52 -93 55 -103 55 -168 0 -66 1 -68
25 -68 24 0 25 2 25 75 0 71 2 79 50 162 28 48 50 90 50 94 0 4 -10 9 -23 11
-20 4 -28 -5 -62 -69 -21 -40 -42 -70 -47 -65 -4 4 -23 37 -42 72 -28 52 -39
64 -60 65 -14 0 -26 -2 -26 -5z"/>
<path d="M8612 2430 c-84 -52 -97 -223 -21 -296 58 -56 166 -38 211 35 32 51
32 161 0 213 -40 65 -126 87 -190 48z m104 -35 c85 -35 84 -205 -1 -241 -74
-30 -129 33 -122 140 3 51 8 63 35 87 37 33 41 34 88 14z"/>
<path d="M8977 2443 c-13 -12 -7 -257 6 -283 15 -30 71 -60 110 -60 47 0 94
28 106 62 6 17 11 87 11 154 l0 124 -25 0 -25 0 0 -124 c0 -144 -11 -170 -70
-168 -58 1 -65 17 -68 167 -3 121 -5 135 -21 135 -10 0 -21 -3 -24 -7z"/>
<path d="M5200 2270 l0 -170 25 0 25 0 0 170 0 170 -25 0 -25 0 0 -170z"/>
<path d="M5820 2270 l0 -170 25 0 25 0 0 170 0 170 -25 0 -25 0 0 -170z"/>
<path d="M6600 2420 c0 -17 7 -20 43 -20 l42 0 -1 -107 c-1 -60 1 -127 3 -150
4 -38 8 -43 30 -43 l24 0 -3 150 -3 150 43 0 c35 0 42 3 42 20 0 19 -7 20
-110 20 -103 0 -110 -1 -110 -20z"/>
<path d="M3966 1810 c-68 -21 -116 -100 -109 -178 9 -107 66 -162 167 -162 67
0 86 11 86 48 0 22 -1 22 -22 8 -26 -19 -77 -21 -111 -5 -30 14 -67 77 -67
115 0 96 41 139 126 132 46 -4 55 -2 60 14 3 11 4 22 1 24 -10 10 -104 13
-131 4z"/>
<path d="M4630 1645 l0 -175 25 0 25 0 0 125 c0 69 3 125 8 125 4 -1 40 -57
80 -125 65 -110 77 -125 100 -125 l27 0 -3 171 c-3 169 -3 170 -25 167 -21 -3
-22 -9 -27 -121 l-5 -118 -70 125 c-67 120 -71 125 -102 126 l-33 0 0 -175z"/>
<path d="M5593 1813 c-10 -3 -13 -48 -13 -174 l0 -169 25 0 c24 0 25 2 25 65
0 89 21 89 75 0 34 -55 44 -65 68 -65 15 0 27 3 27 7 0 4 -19 35 -41 70 l-41
63 29 28 c37 33 47 63 38 108 -5 27 -14 38 -45 54 -37 19 -116 26 -147 13z
m128 -59 c44 -40 -2 -114 -70 -114 -19 0 -21 6 -21 71 l0 72 36 -6 c20 -3 45
-14 55 -23z"/>
<path d="M5953 1813 c-17 -6 -18 -261 -2 -296 14 -32 49 -47 104 -47 55 0 90
15 104 47 6 14 11 81 11 158 l0 135 -25 0 -25 0 0 -122 c0 -144 -9 -171 -59
-176 -21 -2 -40 3 -52 14 -17 15 -19 32 -19 156 0 140 -2 146 -37 131z"/>
<path d="M6363 1810 c-71 -29 -71 -154 -1 -176 46 -14 78 -44 78 -73 0 -42
-21 -55 -80 -47 -41 6 -51 4 -57 -10 -9 -23 14 -34 78 -34 68 0 105 24 115 74
9 50 -15 88 -75 116 -53 24 -69 49 -56 89 7 24 28 29 73 20 26 -6 34 -3 43 12
8 16 5 21 -16 29 -32 12 -72 12 -102 0z"/>
<path d="M4327 1793 c-2 -10 -28 -83 -56 -163 -28 -80 -51 -148 -51 -152 0 -5
11 -8 24 -8 20 0 27 8 41 50 l17 50 63 0 63 0 17 -50 c15 -44 20 -50 44 -50
l28 0 -61 168 c-61 164 -62 167 -93 170 -22 2 -32 -2 -36 -15z m57 -101 c10
-31 21 -63 23 -69 4 -9 -6 -13 -28 -13 -56 0 -60 8 -41 78 9 34 19 62 22 62 3
0 13 -26 24 -58z"/>
<path d="M5227 1804 c-20 -20 -5 -34 38 -34 l45 0 0 -150 0 -150 25 0 25 0 0
150 0 150 46 0 c38 0 45 3 42 18 -3 15 -18 17 -109 20 -58 1 -108 -1 -112 -4z"/>
<path d="M6600 1790 c0 -17 7 -20 45 -20 l45 0 0 -150 0 -150 25 0 25 0 0 150
0 150 40 0 c33 0 40 3 40 20 0 19 -7 20 -110 20 -103 0 -110 -1 -110 -20z"/>
</g>
</svg>
